<svg width="1080" height="2340" viewBox="0 0 1080 2340" xmlns="http://www.w3.org/2000/svg"><defs><linearGradient id="bg" x1="0" y1="0" x2="0" y2="1"><stop offset="0" stop-color="#1b2a4a"/><stop offset="0.5" stop-color="#0b1024"/><stop offset="1" stop-color="#05060f"/></linearGradient><radialGradient id="glow" cx="0.5" cy="0.18" r="0.6"><stop offset="0" stop-color="#22d3ee" stop-opacity="0.25"/><stop offset="1" stop-color="#22d3ee" stop-opacity="0"/></radialGradient><linearGradient id="word" x1="0" y1="0" x2="1" y2="0"><stop offset="0" stop-color="#22d3ee"/><stop offset="1" stop-color="#7c3aed"/></linearGradient><linearGradient id="pawnG" x1="0" y1="0" x2="0" y2="1"><stop offset="0" stop-color="#ffffff"/><stop offset="1" stop-color="#22d3ee"/></linearGradient></defs><rect width="1080" height="2340" fill="url(#bg)"/><rect width="1080" height="2340" fill="url(#glow)"/><circle cx="120" cy="340" r="2" fill="#fff" opacity="0.7"/><circle cx="300" cy="240" r="1.4" fill="#fff" opacity="0.7"/><circle cx="820" cy="300" r="1.8" fill="#fff" opacity="0.7"/><circle cx="960" cy="200" r="1.3" fill="#fff" opacity="0.7"/><circle cx="60" cy="180" r="1.5" fill="#fff" opacity="0.7"/><circle cx="700" cy="150" r="1.2" fill="#fff" opacity="0.7"/><circle cx="500" cy="120" r="1.6" fill="#fff" opacity="0.7"/><circle cx="200" cy="400" r="1.2" fill="#fff" opacity="0.7"/><text x="540.0" y="200" text-anchor="middle" font-family="'Helvetica Neue',Arial,sans-serif" font-size="76" font-weight="800" letter-spacing="-1" fill="url(#word)">Sync across</text><text x="540.0" y="300" text-anchor="middle" font-family="'Helvetica Neue',Arial,sans-serif" font-size="76" font-weight="800" letter-spacing="-1" fill="#e8ecff">devices</text><rect x="90" y="470" width="900" height="1740" rx="60" fill="#05060f" stroke="#141834" stroke-width="3"/><rect x="90" y="470" width="900" height="86" fill="#05060f"/><text x="130" y="522" font-family="'Helvetica Neue',Arial,sans-serif" font-size="26" font-weight="600" fill="#e8ecff">9:41</text><g fill="#e8ecff"><rect x="840" y="504" width="34" height="18" rx="3"/><rect x="890" y="500" width="40" height="22" rx="4"/><circle cx="950" cy="513" r="11"/></g><rect x="90" y="556" width="900" height="96" fill="#05060f"/><g stroke="#e8ecff" stroke-width="5" stroke-linecap="round"><line x1="134" y1="590" x2="174" y2="590"/><line x1="134" y1="604" x2="174" y2="604"/><line x1="134" y1="618" x2="174" y2="618"/></g><text x="540.0" y="618" text-anchor="middle" font-family="'Helvetica Neue',Arial,sans-serif" font-size="38" font-weight="700" fill="#e8ecff">Profile</text><line x1="90" y1="652" x2="990" y2="652" stroke="#141834" stroke-width="2"/><circle cx="540.0" cy="790" r="120" fill="url(#pawnG)"/><g transform="translate(420.0,670) scale(0.234)" fill="#1A2842"><circle cx="512" cy="322" r="128"/><ellipse cx="512" cy="452" rx="112" ry="34"/><path d="M 449 452 C 430 545, 392 640, 360 724 L 664 724 C 632 640, 594 545, 575 452 Z"/><rect x="338" y="712" width="348" height="150" rx="34"/></g><text x="540.0" y="990" text-anchor="middle" font-family="'Helvetica Neue',Arial,sans-serif" font-size="48" font-weight="800" fill="#e8ecff">David V.</text><text x="540.0" y="1042" text-anchor="middle" font-family="'Helvetica Neue',Arial,sans-serif" font-size="30" fill="#9aa3d0">Signed in with Google</text><rect x="155.0" y="1130" width="236.66666666666669" height="180" rx="28" fill="#141834"/><text x="273.33333333333337" y="1220" text-anchor="middle" font-family="'Helvetica Neue',Arial,sans-serif" font-size="56" font-weight="800" fill="#22d3ee">128</text><text x="273.33333333333337" y="1270" text-anchor="middle" font-family="'Helvetica Neue',Arial,sans-serif" font-size="28" fill="#9aa3d0">Games</text><rect x="421.6666666666667" y="1130" width="236.66666666666669" height="180" rx="28" fill="#141834"/><text x="540.0" y="1220" text-anchor="middle" font-family="'Helvetica Neue',Arial,sans-serif" font-size="56" font-weight="800" fill="#22d3ee">74</text><text x="540.0" y="1270" text-anchor="middle" font-family="'Helvetica Neue',Arial,sans-serif" font-size="28" fill="#9aa3d0">Wins</text><rect x="688.3333333333334" y="1130" width="236.66666666666669" height="180" rx="28" fill="#141834"/><text x="806.6666666666667" y="1220" text-anchor="middle" font-family="'Helvetica Neue',Arial,sans-serif" font-size="56" font-weight="800" fill="#22d3ee">58%</text><text x="806.6666666666667" y="1270" text-anchor="middle" font-family="'Helvetica Neue',Arial,sans-serif" font-size="28" fill="#9aa3d0">Win rate</text><rect x="140" y="1390" width="800" height="96" rx="48" fill="#22d3ee"/><text x="540.0" y="1452" text-anchor="middle" font-family="'Helvetica Neue',Arial,sans-serif" font-size="34" font-weight="700" fill="#1A2842">Edit profile</text></svg>